<?xml version="1.0" encoding="UTF-8" standalone="no" ?>
<!DOCTYPE svg PUBLIC "-//W3C//DTD SVG 1.1//EN" "http://www.w3.org/Graphics/SVG/1.1/DTD/svg11.dtd">
<svg xmlns="http://www.w3.org/2000/svg" xmlns:xlink="http://www.w3.org/1999/xlink" version="1.1" width="619" height="341" viewBox="0 0 619 341" xml:space="preserve">
<desc>Created with Fabric.js 3.6.6</desc>
<defs>
</defs>
<g transform="matrix(1.44 0 0 1.44 309.72 170.64)"  >
<g style=""   >
		<g transform="matrix(0.23 0 0 0.23 0.71 0.91)" id="Layer_1"  >
<linearGradient id="SVGID_SVGID_1__5" gradientUnits="userSpaceOnUse" gradientTransform="matrix(1 0 0 1 0 0)"  x1="936.3734" y1="181.4044" x2="933.1309" y2="943.3718">
<stop offset="0%" style="stop-color:rgb(103,255,213);stop-opacity: 1"/>
<stop offset="100%" style="stop-color:rgb(42,157,205);stop-opacity: 1"/>
</linearGradient>
<path style="stroke: none; stroke-width: 1; stroke-dasharray: none; stroke-linecap: butt; stroke-dashoffset: 0; stroke-linejoin: miter; stroke-miterlimit: 4; fill: url(#SVGID_SVGID_1__5); fill-rule: nonzero; opacity: 1;"  transform=" translate(-934.71, -517.06)" d="M 1460.23 168.81 v 1.59 c 0.45 6.64 5.79 53.95 64.91 79.53 c 1.84 0.8 3.62 1.68 5.36 2.63 c 0.24 0.13 0.46 0.28 0.69 0.41 c 31.16 17.51 40.88 56.68 29.07 89.45 c -27.53 76.39 -125.67 63.83 -181.12 28.75 c -42.73 -27.03 -73.61 -70.87 -85.16 -120.04 c -5.18 -22.06 -6.96 -44.83 -6.23 -67.44 c -5.04 -3.18 -7.99 -4.86 -7.99 -4.86 s -203.55 -158.4 -551.57 57.76 h 210.19 c 27.08 0 50.98 13.84 64.97 34.83 c 8.29 12.37 13.09 27.26 13.09 43.23 c 0 38.91 -28.58 71.21 -65.84 77.1 H 228.65 c -18.25 0 -33.02 15.73 -33.02 35.16 c 0 19.39 14.77 35.13 33.02 35.13 c 0 0 730.02 -0.06 889.47 -0.12 c 16.84 0 30.5 13.66 30.5 30.5 c 0 16.87 -13.66 30.53 -30.53 30.53 H 86.19 c -18.19 0 -33.78 14.26 -34.11 32.42 c -0.3 18.52 14.59 33.63 33.02 33.63 h 1031.42 c 13.72 0 27.47 -0.27 41.19 0 c 12.52 0.24 24.92 -0.75 37.29 2.25 c 21.86 5.25 37.47 23.42 49.15 41.64 c 8.71 13.57 16.33 30.95 19.81 52.63 c 4.38 27.29 1.68 56.8 -8.08 88.51 c -6.91 22.52 -17.41 46.11 -31.43 70.73 l 2.7 -1.95 c 0 0 195.99 -108.8 254.35 -105.2 l -59.8 -110.24 c 0 0 -2.43 -5.34 -1.98 -11.26 c 0.3 -4.23 2.1 -8.77 7.39 -11.8 c 3.84 -2.19 8.38 -1.56 12.85 0.42 c 10.18 4.47 19.93 15.79 19.93 15.79 s 119.61 127.9 121.05 290.74 c 0 0 108.44 -50.44 121.41 -149.87 c 0 0 -3.45 -7.36 -6.6 -19.48 c -5.58 -21.32 -10.3 -57.31 6.24 -93.64 c 0 0 8.02 -25.16 37.68 -42.51 c 17.44 -10.21 42.39 -17.71 77.61 -15.85 C 1817.28 589.88 1831.63 112.97 1460.23 168.81 z M 1674.8 462.52 c 0 0 -19.99 23.78 -52.96 -2.7 c 0 0 -13.45 -13.06 -16.27 -40.56 c -0.96 -9.13 4.11 -17.83 12.43 -21.68 c 11.5 -5.31 29.18 -8.89 47.07 5.49 C 1665.07 403.08 1700.74 438.74 1674.8 462.52 z" stroke-linecap="round" />
</g>
		<g transform="matrix(0.23 0 0 0.23 114.04 -76.18)" id="Layer_1"  >
<path style="stroke: none; stroke-width: 1; stroke-dasharray: none; stroke-linecap: butt; stroke-dashoffset: 0; stroke-linejoin: miter; stroke-miterlimit: 4; fill: rgb(255,255,255); fill-rule: nonzero; opacity: 1;"  transform=" translate(-1427.46, -181.87)" d="M 1521.05 315.26 c -0.36 3.12 -1.11 6.45 -2.46 9.88 l -0.06 0.21 c -3.72 9.55 -11.83 19.72 -28.34 27.68 c -10.15 4.86 -21.74 5.97 -32.69 3.36 c -37.41 -8.83 -126.96 -42.96 -124.86 -166.77 l 0.09 -3.24 c 0.27 -9.55 1.11 -19.63 2.52 -30.26 c 0 0 28.1 -131.35 166.8 -149.93 c 5.1 -0.69 10.39 0.36 14.68 3.24 c 5.25 3.51 9.16 9.76 0.45 20.05 c -2.04 2.43 -4.65 4.38 -7.54 5.73 c -17.8 8.29 -96.34 49.87 -94.42 136.75 c 0 0 1.98 80.34 92.02 119.28 C 1516.64 295.3 1522.25 305.08 1521.05 315.26 z" stroke-linecap="round" />
</g>
		<g transform="matrix(0.23 0 0 0.23 182.16 -90.03)" id="Layer_1"  >
<path style="stroke: none; stroke-width: 1; stroke-dasharray: none; stroke-linecap: butt; stroke-dashoffset: 0; stroke-linejoin: miter; stroke-miterlimit: 4; fill: rgb(255,255,255); fill-rule: nonzero; opacity: 1;"  transform=" translate(-1723.63, -121.66)" d="M 1804.31 243.3 c -4.92 -14.5 -13.96 -29.15 -24.14 -42.45 c -22.64 -29.66 -50.8 -52.66 -50.8 -52.66 c -3.54 -21.47 -12.1 -40.38 -22.67 -56.47 c -23.72 -36.18 -57.52 -58.33 -67.43 -64.37 c -2.07 -1.23 -3.84 -2.94 -5.04 -5.01 c -5.22 -9.13 -3.03 -14.86 0.27 -18.28 c 2.88 -2.97 7.12 -4.35 11.23 -3.99 c 108.02 8.92 158.58 139.48 158.58 139.48 C 1830.97 203.67 1804.31 243.3 1804.31 243.3 z" stroke-linecap="round" />
</g>
		<g transform="matrix(0.23 0 0 0.23 -58.57 72.78)" id="Layer_1"  >
<linearGradient id="SVGID_SVGID_2__6" gradientUnits="userSpaceOnUse" gradientTransform="matrix(1 0 0 1 0 0)"  x1="679.912" y1="180.3131" x2="676.6696" y2="942.2804">
<stop offset="0%" style="stop-color:rgb(103,255,213);stop-opacity: 1"/>
<stop offset="100%" style="stop-color:rgb(42,157,205);stop-opacity: 1"/>
</linearGradient>
<path style="stroke: none; stroke-width: 1; stroke-dasharray: none; stroke-linecap: butt; stroke-dashoffset: 0; stroke-linejoin: miter; stroke-miterlimit: 4; fill: url(#SVGID_SVGID_2__6); fill-rule: nonzero; opacity: 1;"  transform=" translate(-676.98, -829.5)" d="M 1194.02 641.93 c -5.91 -5.85 -13.9 -9.07 -22.22 -9.07 H 820.33 c 5.28 11.26 7.96 23.96 7.24 37.35 c -2.28 41.7 -37.98 73.73 -79.71 73.73 H 270.14 l -0.57 0.12 c 0 0 -2.91 0.66 -8.65 5.88 c -17.35 15.67 -60.52 72.5 -127.9 276.21 h 57.28 c 0 0 77.82 -159.96 388.01 -242.1 c 0 0 222.65 102.68 312.35 103.76 c 0 0 35.64 -103.67 47.98 -159.03 c 1.02 -4.59 3.75 -7.93 7.15 -9.82 v -0.03 c 7.45 -4.2 18.13 -1.89 21.71 7.78 c 0.09 0.24 0.18 0.51 0.27 0.78 c 0 0 15.13 69.89 -40.35 186.62 l -53.32 112.04 h 101.09 l 129.07 -93.91 c 106.94 -120.51 122.19 -196.44 115.26 -239.61 C 1215.43 667.36 1203.27 651.06 1194.02 641.93 z" stroke-linecap="round" />
</g>
		<g transform="matrix(0.23 0 0 0.23 -57.7 -45.64)" id="Layer_1"  >
<linearGradient id="SVGID_SVGID_3__7" gradientUnits="userSpaceOnUse" gradientTransform="matrix(1 0 0 1 0 0)"  x1="681.317" y1="180.3191" x2="678.0746" y2="942.2864">
<stop offset="0%" style="stop-color:rgb(103,255,213);stop-opacity: 1"/>
<stop offset="100%" style="stop-color:rgb(42,157,205);stop-opacity: 1"/>
</linearGradient>
<path style="stroke: none; stroke-width: 1; stroke-dasharray: none; stroke-linecap: butt; stroke-dashoffset: 0; stroke-linejoin: miter; stroke-miterlimit: 4; fill: url(#SVGID_SVGID_3__7); fill-rule: nonzero; opacity: 1;"  transform=" translate(-680.74, -314.64)" d="M 423.1 347.66 h 515.28 c 18.24 0 33.02 -14.79 33.02 -33.02 s -14.79 -33.02 -33.02 -33.02 H 423.1 c -18.24 0 -33.02 14.79 -33.02 33.02 S 404.86 347.66 423.1 347.66 z" stroke-linecap="round" />
</g>
		<g transform="matrix(0.23 0 0 0.23 -101.46 35.14)" id="Layer_1"  >
<linearGradient id="SVGID_SVGID_4__8" gradientUnits="userSpaceOnUse" gradientTransform="matrix(1 0 0 1 0 0)"  x1="492.5749" y1="179.5159" x2="489.3325" y2="941.4832">
<stop offset="0%" style="stop-color:rgb(103,255,213);stop-opacity: 1"/>
<stop offset="100%" style="stop-color:rgb(42,157,205);stop-opacity: 1"/>
</linearGradient>
<path style="stroke: none; stroke-width: 1; stroke-dasharray: none; stroke-linecap: butt; stroke-dashoffset: 0; stroke-linejoin: miter; stroke-miterlimit: 4; fill: url(#SVGID_SVGID_4__8); fill-rule: nonzero; opacity: 1;"  transform=" translate(-490.5, -665.89)" d="M 231.38 632.87 c -18.24 0 -33.02 14.79 -33.02 33.02 c 0 18.24 14.79 33.02 33.02 33.02 h 518.24 c 18.24 0 33.02 -14.79 33.02 -33.02 c 0 -18.24 -14.79 -33.02 -33.02 -33.02 H 231.38 z" stroke-linecap="round" />
</g>
		<g transform="matrix(0.23 0 0 0.23 -162.05 -45.64)" id="Layer_1"  >
<linearGradient id="SVGID_SVGID_5__9" gradientUnits="userSpaceOnUse" gradientTransform="matrix(1 0 0 1 0 0)"  x1="227.6388" y1="178.3885" x2="224.3964" y2="940.3558">
<stop offset="0%" style="stop-color:rgb(103,255,213);stop-opacity: 1"/>
<stop offset="100%" style="stop-color:rgb(42,157,205);stop-opacity: 1"/>
</linearGradient>
<path style="stroke: none; stroke-width: 1; stroke-dasharray: none; stroke-linecap: butt; stroke-dashoffset: 0; stroke-linejoin: miter; stroke-miterlimit: 4; fill: url(#SVGID_SVGID_5__9); fill-rule: nonzero; opacity: 1;"  transform=" translate(-227.06, -314.64)" d="M 143.84 347.66 h 166.44 c 18.24 0 33.02 -14.79 33.02 -33.02 s -14.79 -33.02 -33.02 -33.02 H 143.84 c -18.24 0 -33.02 14.79 -33.02 33.02 S 125.6 347.66 143.84 347.66 z" stroke-linecap="round" />
</g>
		<g transform="matrix(0.23 0 0 0.23 -198.41 -20.09)" id="Layer_1"  >
<linearGradient id="SVGID_SVGID_6__10" gradientUnits="userSpaceOnUse" gradientTransform="matrix(1 0 0 1 0 0)"  x1="70.0167" y1="177.7178" x2="66.7743" y2="939.6851">
<stop offset="0%" style="stop-color:rgb(103,255,213);stop-opacity: 1"/>
<stop offset="100%" style="stop-color:rgb(42,157,205);stop-opacity: 1"/>
</linearGradient>
<path style="stroke: none; stroke-width: 1; stroke-dasharray: none; stroke-linecap: butt; stroke-dashoffset: 0; stroke-linejoin: miter; stroke-miterlimit: 4; fill: url(#SVGID_SVGID_6__10); fill-rule: nonzero; opacity: 1;"  transform=" translate(-68.96, -425.74)" d="M 104.9 392.72 H 33.02 C 14.79 392.72 0 407.5 0 425.74 s 14.79 33.02 33.02 33.02 h 71.87 c 18.24 0 33.02 -14.79 33.02 -33.02 S 123.14 392.72 104.9 392.72 z" stroke-linecap="round" />
</g>
		<g transform="matrix(0.23 0 0 0.23 -109.89 97.33)" id="Layer_1"  >
<linearGradient id="SVGID_SVGID_7__11" gradientUnits="userSpaceOnUse" gradientTransform="matrix(1 0 0 1 0 0)"  x1="457.0515" y1="179.3647" x2="453.8091" y2="941.3321">
<stop offset="0%" style="stop-color:rgb(103,255,213);stop-opacity: 1"/>
<stop offset="100%" style="stop-color:rgb(42,157,205);stop-opacity: 1"/>
</linearGradient>
<path style="stroke: none; stroke-width: 1; stroke-dasharray: none; stroke-linecap: butt; stroke-dashoffset: 0; stroke-linejoin: miter; stroke-miterlimit: 4; fill: url(#SVGID_SVGID_7__11); fill-rule: nonzero; opacity: 1;"  transform=" translate(-453.82, -936.27)" d="M 352.79 929.97 l -41.43 96.19 h 88.99 c 0 0 132.22 -126.45 153.83 -130.06 c 0 0 49.16 -26.66 41.23 -49.72 C 595.41 846.39 400.35 865.12 352.79 929.97 z" stroke-linecap="round" />
</g>
		<g transform="matrix(0.23 0 0 0.23 89.79 93.35)" id="Layer_1"  >
<linearGradient id="SVGID_SVGID_8__12" gradientUnits="userSpaceOnUse" gradientTransform="matrix(1 0 0 1 0 0)"  x1="1325.183" y1="183.0589" x2="1321.9406" y2="945.0262">
<stop offset="0%" style="stop-color:rgb(103,255,213);stop-opacity: 1"/>
<stop offset="100%" style="stop-color:rgb(42,157,205);stop-opacity: 1"/>
</linearGradient>
<path style="stroke: none; stroke-width: 1; stroke-dasharray: none; stroke-linecap: butt; stroke-dashoffset: 0; stroke-linejoin: miter; stroke-miterlimit: 4; fill: url(#SVGID_SVGID_8__12); fill-rule: nonzero; opacity: 1;"  transform=" translate(-1322, -918.95)" d="M 1422.37 823.45 c -0.42 -8.71 -9.64 -14.22 -17.54 -10.53 c -18.42 8.6 -41.31 21.89 -64.79 34.9 c -28.58 15.84 -53.9 31.69 -85.5 38.19 c 0 0 59.8 26.66 15.13 69.89 c 0 0 -40.35 51.16 -48.28 70.25 c 0.25 -0.61 17.77 -0.22 19.05 -0.31 c 16 -1.17 31.9 -4.27 47.16 -9.22 c 43.36 -14.06 75.95 -46.63 103.47 -81.68 C 1415.4 903.99 1424.23 862.03 1422.37 823.45 z" stroke-linecap="round" />
</g>
		<g transform="matrix(0.23 0 0 0.23 200.17 38.52)" id="Layer_1"  >
<path style="stroke: none; stroke-width: 1; stroke-dasharray: none; stroke-linecap: butt; stroke-dashoffset: 0; stroke-linejoin: miter; stroke-miterlimit: 4; fill: rgb(255,255,255); fill-rule: nonzero; opacity: 1;"  transform=" translate(-1801.92, -680.57)" d="M 1862.89 664.06 c -0.03 0 -0.03 0 -0.03 0 c -1.98 26.21 -13.81 60.01 -60.77 64.28 c -0.54 0.03 -1.11 0.06 -1.68 0.06 h -37.5 c -5.94 0 -11.47 -3.09 -14.41 -8.23 c -7.51 -12.97 -16.78 -39.48 9.67 -66.95 c 5.67 -5.94 13.06 -11.92 22.49 -17.83 c 2.7 -1.68 5.85 -2.64 9.04 -2.64 h 56.65 c 8.89 0 16.27 6.94 16.72 15.82 C 1863.31 653.13 1863.31 658.42 1862.89 664.06 z" stroke-linecap="round" />
</g>
		<g transform="matrix(0.23 0 0 0.23 147.07 56.29)" id="Layer_1"  >
<path style="stroke: none; stroke-width: 1; stroke-dasharray: none; stroke-linecap: butt; stroke-dashoffset: 0; stroke-linejoin: miter; stroke-miterlimit: 4; fill: rgb(25,177,221); fill-rule: nonzero; opacity: 1;"  transform=" translate(-1571.04, -757.82)" d="M 1702.36 761.36 c -12.97 99.43 -121.41 149.87 -121.41 149.87 c -1.44 -162.84 -121.05 -290.74 -121.05 -290.74 s -9.76 -11.32 -19.93 -15.79 h -0.03 l -0.21 -0.3 c 103.76 7.21 172.93 247.86 172.93 247.86 c 54.01 -42.66 82.32 -108.59 83.1 -110.36 C 1698.91 754.01 1702.36 761.36 1702.36 761.36 z" stroke-linecap="round" />
</g>
		<g transform="matrix(0.23 0 0 0.23 96.91 49.98)" id="Layer_1"  >
<path style="stroke: none; stroke-width: 1; stroke-dasharray: none; stroke-linecap: butt; stroke-dashoffset: 0; stroke-linejoin: miter; stroke-miterlimit: 4; fill: rgb(25,177,221); fill-rule: nonzero; opacity: 1;"  transform=" translate(-1352.99, -730.41)" d="M 1421.71 627.34 l 59.8 110.24 c -58.36 -3.6 -254.35 105.2 -254.35 105.2 l -2.7 1.95 c 14.02 -24.62 24.53 -48.22 31.43 -70.73 v -0.03 c 153.65 -45.06 163.65 -157.89 163.65 -157.89 h 0.18 C 1419.28 622 1421.71 627.34 1421.71 627.34 z" stroke-linecap="round" />
</g>
		<g transform="matrix(0.23 0 0 0.23 -90.21 82.68)" id="Layer_1"  >
<path style="stroke: none; stroke-width: 1; stroke-dasharray: none; stroke-linecap: butt; stroke-dashoffset: 0; stroke-linejoin: miter; stroke-miterlimit: 4; fill: rgb(25,177,221); fill-rule: nonzero; opacity: 1;"  transform=" translate(-539.4, -872.55)" d="M 945.79 718.94 v 0.03 c -3.39 1.89 -6.12 5.22 -7.15 9.82 c -12.34 55.36 -47.98 159.03 -47.98 159.03 c -89.71 -1.08 -312.35 -103.76 -312.35 -103.76 c -310.19 82.14 -388.01 242.1 -388.01 242.1 h -57.28 C 322.17 789.46 581.56 766.5 581.56 766.5 l 276.69 73.49 C 890.67 732.99 945.79 718.94 945.79 718.94 z" stroke-linecap="round" />
</g>
		<g transform="matrix(0.23 0 0 0.23 200.13 40.88)" id="Layer_1"  >
<path style="stroke: none; stroke-width: 1; stroke-dasharray: none; stroke-linecap: butt; stroke-dashoffset: 0; stroke-linejoin: miter; stroke-miterlimit: 4; fill: rgb(167,225,233); fill-rule: nonzero; opacity: 0.33;"  transform=" translate(-1801.73, -690.81)" d="M 1862.86 664.06 c -1.98 26.21 -13.81 60.01 -60.77 64.28 c -0.54 0.03 -1.11 0.06 -1.68 0.06 h -37.5 c -5.94 0 -11.47 -3.09 -14.41 -8.23 c -7.51 -12.97 -16.78 -39.48 9.67 -66.95 C 1773.15 662.56 1804.61 674.03 1862.86 664.06 z" stroke-linecap="round" />
</g>
		<g transform="matrix(0.23 0 0 0.23 186.72 -84.36)" id="Layer_1"  >
<path style="stroke: none; stroke-width: 1; stroke-dasharray: none; stroke-linecap: butt; stroke-dashoffset: 0; stroke-linejoin: miter; stroke-miterlimit: 4; fill: rgb(167,225,233); fill-rule: nonzero; opacity: 0.33;"  transform=" translate(-1743.45, -146.28)" d="M 1780.18 200.85 c -22.64 -29.66 -50.8 -52.66 -50.8 -52.66 c -3.54 -21.47 -12.1 -40.38 -22.67 -56.47 C 1706.71 91.71 1766.88 117.11 1780.18 200.85 z" stroke-linecap="round" />
</g>
		<g transform="matrix(0.23 0 0 0.23 164.04 -18.51)" id="Layer_1"  >
<path style="stroke: none; stroke-width: 1; stroke-dasharray: none; stroke-linecap: butt; stroke-dashoffset: 0; stroke-linejoin: miter; stroke-miterlimit: 4; fill: none; fill-rule: nonzero; opacity: 1;"  transform=" translate(-1644.84, -432.63)" d="M 1617.99 397.58 c -8.32 3.84 -13.39 12.55 -12.43 21.68 c 2.82 27.5 16.27 40.56 16.27 40.56 c 32.96 26.48 52.96 2.7 52.96 2.7 c 25.94 -23.78 -9.73 -59.44 -9.73 -59.44 C 1647.18 388.7 1629.49 392.27 1617.99 397.58 z" stroke-linecap="round" />
</g>
		<g transform="matrix(0.23 0 0 0.23 167.83 -36.47)" id="Layer_1"  >
<path style="stroke: none; stroke-width: 1; stroke-dasharray: none; stroke-linecap: butt; stroke-dashoffset: 0; stroke-linejoin: miter; stroke-miterlimit: 4; fill: rgb(255,255,255); fill-rule: nonzero; opacity: 1;"  transform=" translate(-1661.3, -354.54)" d="M 1737.87 208.2 c -57.28 -59.05 -131.14 -88.99 -219.46 -88.99 c -8.02 0 -16.18 0.24 -24.5 0.75 c -0.09 0 -0.18 0 -0.24 0.03 c -2.55 0.15 -5.13 0.33 -7.72 0.54 c -5.46 0.81 -9.91 2.37 -13.54 4.47 c -7.24 12.22 -12.16 26.78 -12.19 43.8 c 371.41 -55.84 357.06 421.06 357.06 421.06 h 45.03 C 1862.8 568.08 1864.63 338.86 1737.87 208.2 z" stroke-linecap="round" />
</g>
		<g transform="matrix(0.23 0 0 0.23 9.82 -82.38)" id="Layer_1"  >
<path style="stroke: none; stroke-width: 1; stroke-dasharray: none; stroke-linecap: butt; stroke-dashoffset: 0; stroke-linejoin: miter; stroke-miterlimit: 4; fill: rgb(255,255,255); fill-rule: nonzero; opacity: 1;"  transform=" translate(-974.3, -154.93)" d="M 1279.76 178.81 c 0 0 2.94 1.68 7.99 4.86 c 0.36 -10.63 1.26 -21.8 2.85 -33.54 c 0.15 -1.17 0.36 -2.31 0.6 -3.45 c 0.27 -1.32 1.32 -5.85 3.42 -12.73 c -29.72 -19.9 -104.39 -60.65 -218.5 -60.65 c -113.81 0 -235.5 39.72 -361.59 118.05 c -13.39 8.32 -48.67 27.2 -60.55 45.21 h 74.22 C 1076.21 20.41 1279.76 178.81 1279.76 178.81 z" stroke-linecap="round" />
</g>
		<g transform="matrix(0.23 0 0 0.23 113.62 -55.06)" id="Layer_1"  >
<path style="stroke: none; stroke-width: 1; stroke-dasharray: none; stroke-linecap: butt; stroke-dashoffset: 0; stroke-linejoin: miter; stroke-miterlimit: 4; fill: rgb(167,225,233); fill-rule: nonzero; opacity: 0.33;"  transform=" translate(-1425.6, -273.69)" d="M 1518.59 325.14 l -0.06 0.21 c -3.72 9.55 -11.83 19.72 -28.34 27.68 c -10.15 4.86 -21.74 5.97 -32.69 3.36 c -37.41 -8.83 -126.96 -42.96 -124.86 -166.77 C 1332.63 189.62 1419.49 339.28 1518.59 325.14 z" stroke-linecap="round" />
</g>
</g>
</g>
</svg>